<?xml version="1.0" encoding="UTF-8" standalone="no"?>
<!-- Created with Inkscape (http://www.inkscape.org/) -->

<svg
   xmlns:dc="http://purl.org/dc/elements/1.1/"
   xmlns:cc="http://creativecommons.org/ns#"
   xmlns:rdf="http://www.w3.org/1999/02/22-rdf-syntax-ns#"
   xmlns:svg="http://www.w3.org/2000/svg"
   xmlns="http://www.w3.org/2000/svg"
   xmlns:sodipodi="http://sodipodi.sourceforge.net/DTD/sodipodi-0.dtd"
   xmlns:inkscape="http://www.inkscape.org/namespaces/inkscape"
   width="118.91631mm"
   height="30.306482mm"
   viewBox="0 0 421.35702 107.38518"
   id="svg4818"
   version="1.1"
   inkscape:version="0.91 r13725"
   sodipodi:docname="yacman_logo.svg">
  <defs
     id="defs4820" />
  <sodipodi:namedview
     id="base"
     pagecolor="#ffffff"
     bordercolor="#666666"
     borderopacity="1.0"
     inkscape:pageopacity="0.0"
     inkscape:pageshadow="2"
     inkscape:zoom="1.348958"
     inkscape:cx="328.37235"
     inkscape:cy="60.13659"
     inkscape:document-units="px"
     inkscape:current-layer="layer1"
     showgrid="false"
     fit-margin-top="1"
     fit-margin-left="1"
     fit-margin-right="1"
     fit-margin-bottom="1" />
  <metadata
     id="metadata4823">
    <rdf:RDF>
      <cc:Work
         rdf:about="">
        <dc:format>image/svg+xml</dc:format>
        <dc:type
           rdf:resource="http://purl.org/dc/dcmitype/StillImage" />
        <dc:title></dc:title>
      </cc:Work>
    </rdf:RDF>
  </metadata>
  <g
     inkscape:label="Layer 1"
     inkscape:groupmode="layer"
     id="layer1"
     transform="translate(-442.41812,-347.24105)">
    <g
       id="g4246"
       transform="matrix(1.1801441,0,0,1.1801441,446.58141,343.35998)">
      <path
         inkscape:connector-curvature="0"
         id="path12"
         d="m 32.56722,79.75789 c -0.15137,0 -0.30275,-0.01966 -0.45019,-0.06094 -5.29615,-1.47247 -8.41211,-3.72343 -9.52678,-6.88264 -1.06945,-3.06091 -1.31912,-5.82695 -1.16185,-8.18014 -0.16514,0.06487 -0.34403,0.10419 -0.53079,0.11402 -0.72739,0.03735 -1.47443,-0.45216 -1.69854,-1.1933 -1.44101,-4.76339 -2.20968,-8.93898 -2.30011,-12.47367 -0.23787,0.38335 -0.46395,0.79619 -0.6743,1.23852 -0.33814,0.71362 -1.13433,1.09304 -1.89907,0.91611 -0.77064,-0.17889 -1.31323,-0.86893 -1.3034,-1.65922 0.12189,-10.28955 3.38529,-17.68234 9.69781,-21.97195 0.76867,-0.52785 1.8165,-0.32241 2.33746,0.44528 0.52293,0.76965 0.32241,1.8165 -0.44626,2.33845 -4.28568,2.91446 -6.86494,7.45373 -7.81251,13.79869 0.41481,-0.31356 0.84731,-0.5878 1.2975,-0.82175 0.56618,-0.2939 1.26211,-0.24279 1.77718,0.14351 0.51703,0.38237 0.77064,1.0262 0.65268,1.65824 -0.57798,3.11989 -0.23787,7.22077 1.01048,12.22007 0.61926,-0.3578 1.34271,-0.61926 2.16053,-0.7726 0.5996,-0.09829 1.19527,0.10223 1.58452,0.55635 0.39318,0.45412 0.5131,1.08125 0.31651,1.64939 -0.82371,2.38464 -1.46263,6.20636 0.16907,10.87735 0.55832,1.58256 2.18216,2.90955 4.84203,3.95934 -0.20839,-3.83942 0.47378,-7.89507 2.03471,-12.09425 0.28112,-0.74704 1.03996,-1.1992 1.83419,-1.07535 0.78833,0.11992 1.384,0.7785 1.42528,1.57665 0.06291,1.22476 0.27129,2.37089 0.62909,3.4482 0.67234,-3.01177 2.04847,-5.87413 4.11661,-8.55563 0.36762,-0.47575 0.95936,-0.72738 1.56093,-0.63892 0.59764,0.0806 1.10484,0.47575 1.33092,1.03407 0.52883,1.30143 0.84731,2.88792 0.9574,4.78698 1.70444,-2.7503 2.97245,-5.79156 3.84138,-9.19258 0.23198,-0.90235 1.15792,-1.43708 2.04847,-1.21493 0.90039,0.23001 1.44494,1.14809 1.21493,2.04847 -1.44691,5.65984 -4.02814,10.61983 -7.6749,14.7384 -0.48361,0.54456 -1.26408,0.71952 -1.93052,0.42661 -0.66841,-0.29095 -1.07535,-0.97903 -1.00458,-1.70444 0.173,-1.80666 0.22215,-3.40102 0.15137,-4.77715 -1.28963,2.62646 -1.84992,5.38069 -1.70444,8.33544 0.03539,0.71363 -0.38335,1.37221 -1.04586,1.64153 -0.65465,0.27326 -1.41938,0.0924 -1.89513,-0.44233 -0.92004,-1.03799 -1.68282,-2.15266 -2.28438,-3.34007 -0.38335,2.46722 -0.37745,4.8322 0.0118,7.13624 0.09633,0.56815 -0.10419,1.14613 -0.53276,1.53144 -0.31259,0.28309 -0.7156,0.43251 -1.12648,0.43251 z"
         style="fill:#000000" />
      <path
         inkscape:connector-curvature="0"
         id="path14"
         d="m 23.66757,32.68034 c -0.57208,0 -1.12843,-0.29193 -1.44494,-0.81683 -0.47771,-0.79717 -0.22018,-1.83124 0.57601,-2.30994 0.0039,-0.002 0.07471,-0.04423 0.21428,-0.12975 -0.97706,0.1848 -1.96001,0.47083 -2.96066,0.8591 -0.68217,0.26736 -1.45674,0.05898 -1.91676,-0.50819 -0.46002,-0.56815 -0.50131,-1.36925 -0.10223,-1.98163 2.38268,-3.64676 5.95866,-6.05106 10.66504,-7.17752 -0.62516,-0.33027 -0.98295,-1.02227 -0.87876,-1.73196 0.11009,-0.75294 0.71166,-1.33878 1.46656,-1.42823 4.901,-0.57994 9.09232,-0.38139 12.50316,0.58682 -0.21822,-0.54357 -0.13761,-1.16283 0.21428,-1.63367 0.35976,-0.48263 0.96133,-0.73525 1.5511,-0.66448 1.903,0.23099 4.19131,0.83944 6.99273,1.85876 0.87286,0.31749 1.32306,1.28374 1.00655,2.1566 -0.31848,0.87385 -1.2798,1.32699 -2.15857,1.00654 -1.33681,-0.48656 -2.53405,-0.86795 -3.60547,-1.15104 0.06684,0.40891 0.10026,0.79816 0.10026,1.16775 0,0.58781 -0.30471,1.13236 -0.80799,1.43806 -0.49934,0.30373 -1.1245,0.32634 -1.64743,0.05799 -2.29814,-1.18741 -5.29025,-1.78406 -8.92914,-1.78406 -0.0059,0 -0.0118,0 -0.01966,0 0.10026,0.15629 0.1848,0.31651 0.25557,0.47968 0.21428,0.5013 0.173,1.07437 -0.11009,1.5393 -0.28309,0.46494 -0.77457,0.76474 -1.31716,0.80307 -3.50128,0.25065 -6.36167,1.08321 -8.63229,2.52422 1.47246,-0.07962 2.93903,0.01966 4.39183,0.30963 0.67234,0.13368 1.19527,0.66251 1.32305,1.33682 0.12778,0.67332 -0.16513,1.35746 -0.74115,1.72901 -3.39709,2.18707 -5.12315,3.2231 -5.12315,3.2231 -0.27127,0.16319 -0.57009,0.24085 -0.86497,0.24085 z"
         style="fill:#000000" />
      <path
         inkscape:connector-curvature="0"
         id="path16"
         d="m 67.43256,79.75789 c -0.41087,0 -0.81388,-0.14941 -1.12646,-0.4325 -0.42857,-0.38531 -0.62909,-0.96329 -0.53276,-1.53144 0.39122,-2.31583 0.39515,-4.69065 0.0079,-7.16965 -0.5996,1.1815 -1.35648,2.30207 -2.26669,3.35777 -0.46985,0.54259 -1.23459,0.72542 -1.89907,0.46199 -0.66841,-0.26736 -1.09108,-0.92791 -1.05569,-1.64547 0.14351,-2.93706 -0.42857,-5.70113 -1.74572,-8.36886 -0.07077,1.37417 -0.0079,2.97442 0.19069,4.78895 0.0806,0.72935 -0.32044,1.42528 -0.99082,1.72213 -0.67234,0.29292 -1.4587,0.12189 -1.94231,-0.42267 -3.69983,-4.17951 -6.30073,-9.13753 -7.73191,-14.7384 -0.23001,-0.90039 0.31454,-1.81846 1.21493,-2.04847 0.89252,-0.22018 1.81847,0.31258 2.04848,1.21493 0.84337,3.30666 2.13694,6.36364 3.85711,9.13753 0.11403,-1.88923 0.45019,-3.46786 1.01244,-4.76732 0.23787,-0.55045 0.74901,-0.93184 1.34468,-1.00261 0.59567,-0.06881 1.18151,0.1789 1.54324,0.65464 2.04848,2.70705 3.41675,5.56548 4.09302,8.54383 0.36763,-1.08715 0.57994,-2.23327 0.64285,-3.4482 0.04129,-0.79815 0.63696,-1.45673 1.42529,-1.57665 0.79619,-0.13172 1.55306,0.3283 1.83419,1.07535 1.56093,4.19721 2.2431,8.25091 2.03667,12.09032 2.61859,-1.0439 4.22277,-2.36892 4.78305,-3.95934 1.70051,-4.70049 1.03407,-8.49271 0.17693,-10.84787 -0.20642,-0.56618 -0.0924,-1.20117 0.29488,-1.66119 0.39122,-0.46199 0.99475,-0.6743 1.58846,-0.57208 0.82175,0.14941 1.5511,0.40891 2.17429,0.7667 1.2739,-5.05434 1.6317,-9.15129 1.06355,-12.21221 -0.11796,-0.63204 0.13565,-1.27588 0.65268,-1.65824 0.51704,-0.38434 1.211,-0.43545 1.77718,-0.14351 0.45019,0.23296 0.88072,0.5072 1.29356,0.82372 -0.95347,-6.3253 -3.55043,-10.86655 -7.86559,-13.80066 -0.76867,-0.52195 -0.96919,-1.56879 -0.44626,-2.33845 0.519,-0.76768 1.56683,-0.97312 2.33746,-0.44528 6.35381,4.31713 9.6349,11.70992 9.75482,21.97195 0.0098,0.7844 -0.52489,1.4705 -1.2857,1.65529 -0.77457,0.18676 -1.5511,-0.18086 -1.903,-0.88269 -0.22215,-0.44626 -0.45412,-0.86106 -0.69396,-1.24245 -0.10419,3.47965 -0.88466,7.59626 -2.35123,12.44812 -0.22804,0.75097 -0.96919,1.26604 -1.73,1.19134 -0.15924,-0.0118 -0.31062,-0.04325 -0.45412,-0.09633 0.15924,2.34729 -0.10419,5.11135 -1.21297,8.1762 -1.1127,3.15921 -4.21097,5.41017 -9.46387,6.87084 -0.14744,0.04128 -0.29881,0.06094 -0.45019,0.06094 z"
         style="fill:#000000" />
      <path
         inkscape:connector-curvature="0"
         id="path18"
         d="m 76.27521,32.68034 c -0.30275,0 -0.60943,-0.08257 -0.88662,-0.2536 0,0 -1.65726,-1.03013 -5.08973,-3.20344 -0.58191,-0.36861 -0.88073,-1.05471 -0.75491,-1.73295 0.12778,-0.67726 0.65465,-1.20805 1.33092,-1.34173 1.46066,-0.28604 2.9292,-0.38433 4.38593,-0.31061 -2.26669,-1.42823 -5.13298,-2.27259 -8.57725,-2.52127 -0.54259,-0.03932 -1.0321,-0.33814 -1.31519,-0.80307 -0.28309,-0.46494 -0.32437,-1.03898 -0.11009,-1.5393 0.07078,-0.16317 0.15531,-0.32339 0.25557,-0.47968 -0.0079,0 -0.01376,0 -0.01966,0 -3.63889,0 -6.631,0.59665 -8.92914,1.78406 -0.52489,0.26736 -1.14612,0.24574 -1.64743,-0.05799 -0.50327,-0.3057 -0.80799,-0.85025 -0.80799,-1.43806 0,-0.36959 0.03342,-0.75884 0.10026,-1.16775 -1.08125,0.28309 -2.30011,0.66644 -3.67428,1.15595 -0.87679,0.31258 -1.83812,-0.14646 -2.1507,-1.02227 -0.31061,-0.87581 0.14548,-1.83911 1.02227,-2.1507 2.91151,-1.03505 5.14674,-1.62384 7.03794,-1.85385 0.5937,-0.07077 1.18937,0.18185 1.5511,0.66448 0.3519,0.47083 0.4325,1.09009 0.21428,1.63367 3.41085,-0.96821 7.5943,-1.16677 12.50316,-0.58682 0.75491,0.08945 1.35648,0.67529 1.46657,1.42823 0.10419,0.70969 -0.2536,1.40267 -0.87876,1.73295 4.71818,1.12941 8.27843,3.53765 10.61589,7.1903 0.39515,0.61533 0.346,1.41447 -0.11795,1.9777 -0.46396,0.56618 -1.24638,0.76179 -1.91872,0.49442 -0.99278,-0.39318 -1.97574,-0.68119 -2.95869,-0.86402 0.1612,0.10124 0.24181,0.15137 0.24377,0.15137 0.7903,0.49049 1.0321,1.52849 0.54063,2.31879 -0.31847,0.51308 -0.86893,0.79519 -1.43118,0.79519 z"
         style="fill:#000000" />
      <path
         inkscape:connector-curvature="0"
         id="path20"
         d="m 16.98742,40.89782 c -0.32241,0 -0.64875,-0.0924 -0.93577,-0.28604 C 4.82632,33.08335 -0.41478,26.3688 0.02558,20.08281 c 0.3519,-5.01503 4.40953,-9.43635 12.06476,-13.1411 0.71559,-0.34797 1.58255,-0.14449 2.06813,0.48951 0.48558,0.63302 0.46199,1.51965 -0.05898,2.12416 -3.21229,3.72539 -4.48423,6.6369 -3.67624,8.41997 0.63892,1.41349 3.41871,3.80305 14.85635,3.92002 0.92987,0.0088 1.67495,0.77064 1.66512,1.69953 -0.0098,0.92397 -0.76081,1.66709 -1.68282,1.66709 -0.0059,0 -0.0118,0 -0.01769,-9.8e-4 C 14.81115,25.15583 9.12575,23.28134 7.35447,19.36231 6.60939,17.7139 6.62905,15.85415 7.42524,13.75063 c -2.52619,2.08288 -3.8807,4.27978 -4.0419,6.56809 -0.34403,4.9069 4.54911,10.79381 14.54377,17.49755 0.7726,0.51802 0.97902,1.5629 0.46002,2.3355 -0.32436,0.48459 -0.85712,0.74605 -1.39971,0.74605 z"
         style="fill:#000000" />
      <path
         inkscape:connector-curvature="0"
         id="path22"
         d="m 83.01434,40.89782 c -0.54259,0 -1.07535,-0.26147 -1.39973,-0.74606 -0.519,-0.77162 -0.31258,-1.81748 0.46002,-2.3355 9.99271,-6.70374 14.88584,-12.59064 14.54181,-17.49755 -0.1612,-2.28831 -1.51375,-4.48522 -4.0419,-6.56809 0.79619,2.1045 0.81585,3.96425 0.07077,5.61168 -1.77128,3.91903 -7.45668,5.79352 -17.88975,5.8987 -0.0059,9.8e-4 -0.0118,9.8e-4 -0.01769,9.8e-4 -0.922,0 -1.67298,-0.74311 -1.68282,-1.66709 -0.0098,-0.92889 0.73525,-1.69068 1.66512,-1.69953 11.43764,-0.11697 14.2194,-2.50555 14.85832,-3.92002 C 90.38451,16.19226 89.11257,13.28076 85.90027,9.55537 85.3793,8.95085 85.35571,8.06423 85.84129,7.43121 86.3249,6.79524 87.19384,6.59177 87.90942,6.9417 c 7.65524,3.70475 11.71287,8.12607 12.06477,13.14208 0.44233,6.285 -4.80074,12.99955 -16.0241,20.52799 -0.287,0.19366 -0.61334,0.28605 -0.93575,0.28605 z"
         style="fill:#000000" />
      <path
         inkscape:connector-curvature="0"
         id="path24"
         d="m 41.55338,91.24467 c -0.31651,0 -0.64875,-0.03735 -0.99475,-0.12189 -3.24768,-0.84927 -4.57073,-2.62448 -5.11529,-3.96523 -0.98885,-2.43575 -0.38728,-5.49667 1.78897,-9.09821 2.65594,-4.3997 7.13231,-5.52812 13.30132,-3.34007 0.87679,0.31062 1.33485,1.27194 1.02424,2.14874 -0.30865,0.87483 -1.26604,1.34075 -2.14874,1.02424 -5.94293,-2.10352 -8.09167,-0.08846 -9.2948,1.90693 -1.55307,2.56944 -2.10352,4.7339 -1.55307,6.09234 0.37156,0.91219 1.32109,1.57469 2.82108,1.96787 0.46985,0.10223 1.03603,-0.29881 2.07993,-1.21296 0.38925,-0.34207 0.78046,-0.68021 1.17955,-0.97312 1.57666,-1.14416 3.15134,-1.12057 4.78698,-1.1245 l 0.54259,0.0039 c 0.92987,0 1.68282,0.75294 1.68282,1.68282 0,0.92987 -0.75294,1.68282 -1.68282,1.68282 l -0.56422,-0.002 c -1.4646,-0.02753 -2.13301,0.0059 -2.78176,0.47771 -0.32044,0.23394 -0.63105,0.50917 -0.94363,0.78439 -1.0203,0.89251 -2.35909,2.06615 -4.1284,2.06615 z"
         style="fill:#000000" />
      <path
         inkscape:connector-curvature="0"
         id="path26"
         d="m 58.45427,91.23878 c -1.78504,0 -3.11793,-1.16972 -4.13626,-2.06027 -0.31258,-0.27522 -0.6232,-0.55045 -0.9456,-0.78439 -0.67824,-0.47182 -1.31716,-0.49541 -2.81911,-0.47771 l -0.58191,0.002 c -0.92987,0 -1.68282,-0.75294 -1.68282,-1.68282 0,-0.92988 0.75294,-1.68282 1.68282,-1.68282 l 0.55832,-0.0039 c 1.70051,0 3.1828,-0.02162 4.79681,1.10287 0.43053,0.31454 0.82175,0.65268 1.211,0.99475 1.04586,0.91611 1.60418,1.31519 2.10942,1.2051 1.45477,-0.38532 2.39841,-1.05177 2.77193,-1.97181 0.55242,-1.37023 0.0079,-3.5288 -1.53341,-6.07858 -1.20313,-1.99343 -3.35187,-4.01242 -9.35771,-1.90693 -0.86697,0.31061 -1.83812,-0.15334 -2.1448,-1.0321 -0.30865,-0.87679 0.15334,-1.83812 1.0321,-2.14481 6.2103,-2.17822 10.70239,-1.05176 13.35243,3.34401 2.13301,3.5288 2.74637,6.67032 1.77128,9.08052 -0.54259,1.34468 -1.86368,3.12579 -5.06417,3.9731 -0.35584,0.0865 -0.69398,0.12386 -1.02032,0.12386 z"
         style="fill:#000000" />
      <path
         inkscape:connector-curvature="0"
         id="path28"
         d="m 49.82788,93.22827 c -2.88988,0 -5.77976,-0.81388 -8.30202,-2.43969 -0.78243,-0.50523 -1.00654,-1.54716 -0.50327,-2.32763 0.50524,-0.78046 1.54914,-1.00458 2.32763,-0.50327 3.93575,2.53996 9.01958,2.53799 12.95532,0.002 0.78046,-0.50524 1.82436,-0.27916 2.32566,0.5013 0.50524,0.78046 0.28113,1.8224 -0.5013,2.32567 -2.52029,1.62777 -5.41017,2.44165 -8.30202,2.44165 z"
         style="fill:#000000" />
      <path
         inkscape:connector-curvature="0"
         id="path30"
         d="m 36.674,86.20605 c -0.346,0 -0.69396,-0.10616 -0.99475,-0.32634 -2.03668,-1.49409 -3.57598,-3.87283 -4.70835,-7.27188 -0.29489,-0.88269 0.18283,-1.83616 1.06355,-2.12908 0.88269,-0.29684 1.83615,0.1789 2.12908,1.06356 0.89252,2.67953 2.07206,4.57073 3.50914,5.62446 0.74901,0.54848 0.91022,1.60221 0.35976,2.35319 -0.32829,0.44823 -0.83943,0.68609 -1.35843,0.68609 z"
         style="fill:#000000" />
      <path
         inkscape:connector-curvature="0"
         id="path32"
         d="m 63.32579,86.20605 c -0.519,0 -1.03013,-0.23787 -1.35844,-0.6861 -0.55045,-0.75098 -0.38925,-1.8047 0.35976,-2.35319 1.43708,-1.05373 2.61662,-2.94493 3.50914,-5.62446 0.29292,-0.88269 1.24835,-1.35844 2.12907,-1.06356 0.88073,0.29292 1.35844,1.24639 1.06356,2.12908 -1.13236,3.39905 -2.67167,5.77779 -4.70835,7.27188 -0.30078,0.2202 -0.65071,0.32635 -0.99474,0.32635 z"
         style="fill:#000000" />
      <path
         inkscape:connector-curvature="0"
         id="path34"
         d="m 42.49308,84.60778 c -0.28703,0 -0.57994,-0.07274 -0.84731,-0.23001 -0.80209,-0.46789 -1.07339,-1.49802 -0.60353,-2.30208 l 0.80013,-1.37024 c 0.46788,-0.80013 1.49605,-1.07535 2.30207,-0.60353 0.80209,0.46789 1.07338,1.49802 0.60353,2.30208 l -0.80013,1.37023 c -0.31257,0.53473 -0.87482,0.83355 -1.45476,0.83355 z"
         style="fill:#000000" />
      <path
         inkscape:connector-curvature="0"
         id="path36"
         d="m 57.50671,84.60778 c -0.57994,0 -1.14219,-0.29882 -1.45477,-0.83355 L 55.25181,82.404 c -0.46985,-0.80406 -0.19855,-1.83419 0.60353,-2.30208 0.80602,-0.47379 1.83419,-0.19659 2.30207,0.60353 l 0.80013,1.37024 c 0.46985,0.80405 0.19855,1.83419 -0.60353,2.30208 -0.26736,0.15727 -0.56028,0.23001 -0.8473,0.23001 z"
         style="fill:#000000" />
      <path
         inkscape:connector-curvature="0"
         id="path38"
         d="m 29.99975,53.90819 c -0.21822,0 -0.4384,-0.04128 -0.64678,-0.12778 -0.5878,-0.24574 -0.98689,-0.80209 -1.0321,-1.43708 -0.42463,-6.05106 1.10484,-11.81313 4.54517,-17.12599 0.50327,-0.77948 1.5452,-1.00458 2.3296,-0.49738 0.7785,0.50524 1.00261,1.54717 0.49737,2.32763 -2.37481,3.66642 -3.71949,7.56481 -4.01241,11.62932 1.83615,-1.40562 3.38529,-2.36597 4.68672,-2.91151 0.8532,-0.35681 1.84205,0.04325 2.20378,0.90137 0.35976,0.85714 -0.04522,1.84304 -0.90235,2.2028 -1.55896,0.65465 -3.76864,2.21164 -6.56809,4.62971 -0.31258,0.26933 -0.7038,0.40891 -1.10091,0.40891 z"
         style="fill:#000000" />
      <path
         inkscape:connector-curvature="0"
         id="path40"
         d="m 69.60096,39.29954 c -0.13761,0 -0.27719,-0.01769 -0.4148,-0.0521 -3.806,-0.96624 -6.74503,-1.35942 -8.99992,-1.20707 -0.92398,0.04128 -1.73196,-0.63794 -1.79291,-1.56585 -0.06291,-0.92692 0.63696,-1.73 1.56486,-1.79389 1.69461,-0.11599 3.66642,0.02359 5.98029,0.42169 -1.66512,-1.72705 -4.46457,-3.80599 -9.12967,-6.13756 -0.83158,-0.41579 -1.16775,-1.42725 -0.75294,-2.25883 0.41481,-0.8306 1.42332,-1.16971 2.25883,-0.75294 7.27582,3.63889 11.48679,7.26599 12.86882,11.08968 0.21231,0.58682 0.08257,1.24147 -0.33421,1.70346 -0.32438,0.35682 -0.7785,0.55341 -1.24835,0.55341 z"
         style="fill:#000000" />
      <path
         inkscape:connector-curvature="0"
         id="path42"
         d="m 67.6036,56.24958 c -0.65268,0 -1.27391,-0.38335 -1.54716,-1.02227 -0.70183,-1.63956 -2.22541,-3.06878 -4.52552,-4.24242 -0.82764,-0.42463 -1.15595,-1.43904 -0.73328,-2.26669 0.42463,-0.82764 1.43314,-1.15792 2.26669,-0.73328 3.01766,1.54324 5.06614,3.5347 6.08644,5.91738 0.36566,0.85517 -0.02949,1.84402 -0.88465,2.20968 -0.21626,0.09239 -0.44038,0.1376 -0.66252,0.1376 z"
         style="fill:#000000" />
    </g>
    <g
       style="color:#000000;font-style:normal;font-variant:normal;font-weight:bold;font-stretch:normal;font-size:82.21507263px;line-height:0%;font-family:Arial;-inkscape-font-specification:'Arial Bold';text-indent:0;text-align:center;text-decoration:none;text-decoration-line:none;text-decoration-style:solid;text-decoration-color:#000000;letter-spacing:0px;word-spacing:0px;text-transform:none;direction:ltr;block-progression:tb;writing-mode:lr-tb;baseline-shift:baseline;text-anchor:middle;white-space:normal;clip-rule:nonzero;display:inline;overflow:visible;visibility:visible;opacity:1;isolation:auto;mix-blend-mode:normal;color-interpolation:sRGB;color-interpolation-filters:linearRGB;solid-color:#000000;solid-opacity:1;fill:#bcafa6;fill-opacity:1;fill-rule:nonzero;stroke:#000000;stroke-width:2.00000024;stroke-linecap:butt;stroke-linejoin:miter;stroke-miterlimit:4;stroke-dasharray:none;stroke-dashoffset:0;stroke-opacity:1;marker:none;color-rendering:auto;image-rendering:auto;shape-rendering:auto;text-rendering:auto;enable-background:accumulate"
       id="text4264">
      <path
         d="m 608.90922,390.90571 -15.04536,0 -9.70138,19.0739 -9.94802,-19.0739 -15.29201,0 18.0051,32.14609 -12.66112,23.76016 14.7165,0 29.92629,-55.90625 z"
         style="font-style:normal;font-variant:normal;font-weight:bold;font-stretch:normal;font-family:FuturaEF;-inkscape-font-specification:'FuturaEF Bold';fill:#bcafa6;fill-opacity:1;stroke:#000000;stroke-width:2.00000024;stroke-miterlimit:4;stroke-dasharray:none"
         id="path4214" />
      <path
         d="m 653.06513,428.14914 0,-37.24343 -13.15441,0 0,3.61746 q -2.46645,-2.63088 -5.26176,-3.69967 -2.7131,-1.15101 -6.33056,-1.15101 -4.11076,0 -7.56379,1.56208 -3.45303,1.56209 -5.91948,4.27519 -2.46646,2.71309 -3.86411,6.33056 -1.31544,3.53524 -1.31544,7.56378 0,4.02854 1.39765,7.646 1.39766,3.61747 3.86411,6.41278 2.46645,2.7131 5.91949,4.3574 3.45303,1.56209 7.646,1.56209 3.45303,0 6.33056,-1.31545 2.95974,-1.31544 5.09733,-4.02853 l 0,4.11075 13.15441,0 z M 640.3218,409.48632 q 0,1.72651 -0.65772,3.2886 -0.65772,1.56209 -1.80873,2.79531 -1.15101,1.15101 -2.7131,1.80873 -1.56209,0.65773 -3.2886,0.65773 -1.72652,0 -3.28861,-0.65773 -1.56208,-0.65772 -2.79531,-1.80873 -1.15101,-1.23322 -1.80873,-2.79531 -0.65772,-1.56209 -0.65772,-3.2886 0,-1.72652 0.65772,-3.2886 0.65772,-1.56209 1.80873,-2.7131 1.23323,-1.15101 2.79531,-1.80873 1.56209,-0.65772 3.28861,-0.65772 1.72651,0 3.2886,0.65772 1.56209,0.65772 2.7131,1.80873 1.15101,1.15101 1.80873,2.7131 0.65772,1.56208 0.65772,3.2886 z"
         style="font-style:normal;font-variant:normal;font-weight:bold;font-stretch:normal;font-family:FuturaEF;-inkscape-font-specification:'FuturaEF Bold';fill:#bcafa6;fill-opacity:1;stroke:#000000;stroke-width:2.00000024;stroke-miterlimit:4;stroke-dasharray:none"
         id="path4216" />
      <path
         d="m 690.15569,427.32699 0,-11.18125 q -1.56208,1.15101 -3.20638,1.80873 -1.64431,0.65772 -3.61747,0.65772 -1.97316,0 -3.61746,-0.65772 -1.6443,-0.65772 -2.87753,-1.80873 -1.23322,-1.23323 -1.97316,-2.87753 -0.65772,-1.6443 -0.65772,-3.61746 0,-4.02854 2.54867,-6.49499 2.63088,-2.54867 6.5772,-2.54867 1.97316,0 3.53525,0.65772 1.6443,0.57551 3.2886,1.72652 l 0,-11.18125 q -2.2198,-1.15101 -4.3574,-1.56209 -2.05537,-0.49329 -4.52182,-0.49329 -4.3574,0 -8.1393,1.47987 -3.78189,1.47987 -6.5772,4.11076 -2.79531,2.63088 -4.43962,6.33056 -1.56208,3.69967 -1.56208,8.13929 0,4.27518 1.6443,7.89265 1.6443,3.53524 4.3574,6.16613 2.79531,2.54866 6.49499,4.02853 3.69968,1.47988 7.89265,1.47988 2.54866,0 4.68625,-0.49329 2.21981,-0.4933 4.52183,-1.56209 z"
         style="font-style:normal;font-variant:normal;font-weight:bold;font-stretch:normal;font-family:FuturaEF;-inkscape-font-specification:'FuturaEF Bold';fill:#bcafa6;fill-opacity:1;stroke:#000000;stroke-width:2.00000024;stroke-miterlimit:4;stroke-dasharray:none"
         id="path4218" />
      <path
         d="m 760.74503,428.14914 0,-24.25345 q 0,-2.2198 -0.41107,-4.43961 -0.32886,-2.30202 -1.6443,-4.19297 -1.72652,-2.54867 -4.60405,-3.78189 -2.87753,-1.23323 -5.91948,-1.23323 -8.22151,0 -12.66112,6.98828 -2.21981,-3.69968 -5.34398,-5.34398 -3.04196,-1.6443 -7.31715,-1.6443 -3.8641,0 -6.5772,1.31544 -2.7131,1.23323 -5.4262,3.86411 l 0,-4.52183 -13.15441,0 0,37.24343 13.15441,0 0,-18.41618 q 0,-1.39765 0.0822,-3.20638 0.16443,-1.80874 0.82215,-3.12418 0.65772,-1.39765 2.13759,-2.2198 1.47987,-0.90437 2.95974,-0.90437 1.64431,0 2.7131,0.65772 1.15101,0.65772 1.80873,1.72652 0.65772,1.06879 0.90437,2.46645 0.32886,1.31544 0.32886,2.63088 l 0,20.38934 13.15441,0 0,-18.41618 q 0,-1.47987 0.0822,-2.87752 0.16443,-1.47988 0.82215,-2.87753 0.73993,-1.56209 2.2198,-2.46645 1.47988,-0.98659 3.20639,-0.98659 1.97316,0 3.04196,0.90437 1.15101,0.90437 1.6443,2.30202 0.57551,1.31544 0.65772,2.95975 0.16443,1.56208 0.16443,3.04195 l 0,18.41618 13.15441,0 z"
         style="font-style:normal;font-variant:normal;font-weight:bold;font-stretch:normal;font-family:FuturaEF;-inkscape-font-specification:'FuturaEF Bold';fill:#bcafa6;fill-opacity:1;stroke:#000000;stroke-width:2.00000024;stroke-miterlimit:4;stroke-dasharray:none"
         id="path4220" />
      <path
         d="m 811.71453,428.14914 0,-37.24343 -13.15441,0 0,3.61746 q -2.46645,-2.63088 -5.26177,-3.69967 -2.71309,-1.15101 -6.33056,-1.15101 -4.11075,0 -7.56378,1.56208 -3.45304,1.56209 -5.91949,4.27519 -2.46645,2.71309 -3.86411,6.33056 -1.31544,3.53524 -1.31544,7.56378 0,4.02854 1.39766,7.646 1.39765,3.61747 3.86411,6.41278 2.46645,2.7131 5.91948,4.3574 3.45303,1.56209 7.646,1.56209 3.45304,0 6.33056,-1.31545 2.95975,-1.31544 5.09734,-4.02853 l 0,4.11075 13.15441,0 z m -12.74334,-18.66282 q 0,1.72651 -0.65772,3.2886 -0.65772,1.56209 -1.80873,2.79531 -1.15101,1.15101 -2.7131,1.80873 -1.56208,0.65773 -3.2886,0.65773 -1.72652,0 -3.2886,-0.65773 -1.56209,-0.65772 -2.79531,-1.80873 -1.15102,-1.23322 -1.80874,-2.79531 -0.65772,-1.56209 -0.65772,-3.2886 0,-1.72652 0.65772,-3.2886 0.65772,-1.56209 1.80874,-2.7131 1.23322,-1.15101 2.79531,-1.80873 1.56208,-0.65772 3.2886,-0.65772 1.72652,0 3.2886,0.65772 1.56209,0.65772 2.7131,1.80873 1.15101,1.15101 1.80873,2.7131 0.65772,1.56208 0.65772,3.2886 z"
         style="font-style:normal;font-variant:normal;font-weight:bold;font-stretch:normal;font-family:FuturaEF;-inkscape-font-specification:'FuturaEF Bold';fill:#bcafa6;fill-opacity:1;stroke:#000000;stroke-width:2.00000024;stroke-miterlimit:4;stroke-dasharray:none"
         id="path4222" />
      <path
         d="m 859.98634,428.14914 0,-23.67794 q 0,-3.12417 -0.5755,-5.50841 -0.57551,-2.46645 -2.87753,-4.85069 -2.21981,-2.21981 -4.93291,-3.12417 -2.71309,-0.90437 -5.83727,-0.90437 -3.78189,0 -6.65942,1.23323 -2.87752,1.23322 -5.26176,4.27518 l 0,-4.68626 -13.15441,0 0,37.24343 13.15441,0 0,-19.97826 q 0,-3.37082 1.6443,-5.50841 1.6443,-2.1376 5.26177,-2.1376 1.72651,0 2.87752,0.57551 1.23323,0.57551 1.89095,1.6443 0.73994,0.98658 0.98658,2.38424 0.32886,1.31544 0.32886,2.87753 l 0,20.14269 13.15441,0 z"
         style="font-style:normal;font-variant:normal;font-weight:bold;font-stretch:normal;font-family:FuturaEF;-inkscape-font-specification:'FuturaEF Bold';fill:#bcafa6;fill-opacity:1;stroke:#000000;stroke-width:2.00000024;stroke-miterlimit:4;stroke-dasharray:none"
         id="path4224" />
    </g>
    <path
       style="color:#000000;clip-rule:nonzero;display:inline;overflow:visible;visibility:visible;opacity:0.83529412;isolation:auto;mix-blend-mode:normal;color-interpolation:sRGB;color-interpolation-filters:linearRGB;solid-color:#000000;solid-opacity:1;fill:#502d16;fill-opacity:0.45595871;fill-rule:nonzero;stroke:none;stroke-width:4.84228659;stroke-linecap:butt;stroke-linejoin:miter;stroke-miterlimit:4;stroke-dasharray:none;stroke-dashoffset:0;stroke-opacity:1;marker:none;color-rendering:auto;image-rendering:auto;shape-rendering:auto;text-rendering:auto;enable-background:accumulate"
       d="m 38.872852,84.704972 c -2.62323,-1.295758 -3.863951,-2.608235 -4.518129,-4.77943 -0.62609,-2.077974 -0.892044,-3.854675 -0.892044,-5.959287 0,-2.141202 0.188777,-3.492438 0.757817,-5.424333 0.359883,-1.221807 0.340945,-1.85753 -0.0729,-2.446979 -0.381113,-0.542831 -0.946116,-0.839649 -1.602837,-0.842034 -0.637323,-0.0023 -1.530332,0.226115 -2.315997,0.59242 -0.326143,0.15206 -0.602398,0.265326 -0.6139,0.2517 -0.03214,-0.03807 -0.479566,-1.975658 -0.640634,-2.774279 -0.229136,-1.136127 -0.588301,-3.460935 -0.713335,-4.617291 -0.170178,-1.573864 -0.146325,-4.920828 0.04354,-6.108987 0.08491,-0.53137 0.154151,-1.073456 0.153867,-1.204634 -0.0024,-1.087018 -0.897228,-1.954981 -2.011237,-1.950755 -0.590609,0.0022 -1.002732,0.157315 -1.837918,0.691577 l -0.531298,0.339867 0.06417,-0.493574 c 0.119813,-0.921626 0.622209,-3.055641 0.996415,-4.232453 1.497041,-4.707924 3.871498,-8.209878 7.314991,-10.788475 0.376715,-0.282095 1.518913,-1.031352 2.538219,-1.665015 2.758534,-1.714872 4.236494,-2.666988 4.480061,-2.886096 0.649636,-0.584401 0.810523,-1.715139 0.354706,-2.492932 -0.136735,-0.23332 -0.36843,-0.509539 -0.514878,-0.61382 -0.548879,-0.390836 -2.052978,-0.647834 -4.319889,-0.738119 l -1.482626,-0.05905 1.250965,-0.627916 c 2.168977,-1.088705 4.590809,-1.750865 7.681745,-2.100286 0.864581,-0.09774 1.689496,-0.23908 1.833143,-0.314093 0.32763,-0.171089 0.70454,-0.573103 0.899247,-0.959141 0.20942,-0.415211 0.190345,-1.272565 -0.03959,-1.779361 l -0.185094,-0.407963 1.368596,0.06195 c 3.406022,0.154183 6.625071,0.849866 8.64926,1.869232 0.939186,0.472966 1.566917,0.527022 2.248378,0.193614 0.872903,-0.427072 1.229281,-1.197393 1.118669,-2.418039 l -0.06258,-0.690552 0.684268,0.193585 c 0.376348,0.106472 1.41241,0.438436 2.302361,0.737697 0.88995,0.299262 1.736707,0.544112 1.881684,0.544112 0.144976,0 0.813746,-0.185002 1.486156,-0.411116 1.163109,-0.391124 3.358457,-1.07151 3.457354,-1.07151 0.02553,0 0.02287,0.0381 -0.0059,0.08467 -0.02878,0.04657 -0.05747,0.454672 -0.06376,0.906897 -0.01267,0.911671 0.13594,1.338188 0.629481,1.806608 0.661509,0.627841 1.503172,0.700991 2.510589,0.218199 1.622511,-0.777567 3.666306,-1.380226 5.647979,-1.665433 1.161589,-0.167179 3.132611,-0.331635 3.974679,-0.331635 l 0.58433,0 -0.178763,0.393823 c -0.38051,0.838281 -0.150758,1.908192 0.530317,2.469592 0.396835,0.327106 0.802096,0.437508 2.066773,0.563037 3.070568,0.304778 6.024827,1.139788 8.154443,2.304821 l 0.787645,0.430891 -1.483589,0.05816 c -1.590063,0.06233 -3.317321,0.292206 -3.844598,0.511667 -1.075317,0.447562 -1.526429,1.779103 -0.957119,2.825113 0.276686,0.508365 0.254074,0.492013 3.505382,2.534684 4.159561,2.613291 4.590233,2.931408 6.16602,4.554547 1.155136,1.189848 1.956853,2.22238 2.759873,3.554446 1.44035,2.389285 2.47789,5.150527 3.07986,8.196551 0.15154,0.766801 0.29659,1.488619 0.32232,1.604038 0.0439,0.196717 0.0191,0.190146 -0.39546,-0.104954 -0.79222,-0.563912 -1.36004,-0.79988 -1.924784,-0.79988 -0.847243,0 -1.463164,0.347864 -1.804764,1.019305 -0.271673,0.533995 -0.29773,0.86007 -0.149173,1.866777 0.413313,2.800881 0.228166,6.225253 -0.557899,10.318554 -0.204709,1.065994 -0.639322,3.054913 -0.732443,3.351882 -0.02277,0.07261 -0.267501,0.0072 -0.737978,-0.197366 -0.387152,-0.168303 -1.049776,-0.378585 -1.472497,-0.467295 -0.713362,-0.149704 -0.805414,-0.150586 -1.281172,-0.01228 -0.384575,0.111799 -0.606609,0.251014 -0.889071,0.557449 -0.597151,0.647832 -0.710632,1.305825 -0.386919,2.243452 0.307336,0.890195 0.641774,2.299605 0.78541,3.309926 0.157674,1.10907 0.178815,3.581857 0.04018,4.699291 -0.233457,1.881661 -0.860822,4.171086 -1.454186,5.306718 -0.634713,1.214767 -2.11462,2.438926 -4.106257,3.396637 -0.532191,0.255914 -0.998895,0.465897 -1.037119,0.466629 -0.03822,7.41e-4 -0.0695,-0.771282 -0.0695,-1.715589 0,-3.363424 -0.517623,-6.572472 -1.660178,-10.292416 -0.491004,-1.598618 -0.87038,-2.507776 -1.18446,-2.83851 -0.963924,-1.015039 -2.627702,-0.768222 -3.268748,0.48491 -0.09125,0.178378 -0.194767,0.637065 -0.230038,1.019305 -0.137684,1.492133 -0.540542,3.521236 -0.699106,3.521236 -0.03959,0 -0.101149,-0.15637 -0.136798,-0.34749 -0.09623,-0.515915 -0.576448,-1.982522 -0.993674,-3.03475 -0.760541,-1.918053 -2.304042,-4.6369 -3.556184,-6.264153 -0.499424,-0.649039 -1.00314,-0.918151 -1.7132,-0.915281 -0.621526,0.0025 -1.15372,0.233897 -1.533906,0.666906 -0.558609,0.63622 -1.215742,2.902464 -1.43403,4.945521 l -0.114197,1.068808 -0.455158,-0.770206 c -0.6895,-1.166752 -1.938981,-3.763283 -2.511002,-5.218083 -0.446309,-1.135083 -1.009764,-2.874379 -1.493314,-4.609627 -0.378564,-1.358498 -1.788719,-1.962396 -2.982957,-1.277449 -0.621812,0.356637 -0.812176,0.686041 -1.190741,2.060447 -0.582489,2.114771 -1.414959,4.3934 -2.312061,6.32856 -0.469267,1.012267 -1.821446,3.496455 -1.874365,3.443536 -0.01812,-0.01812 -0.09728,-0.586299 -0.175914,-1.262613 -0.147891,-1.272051 -0.517197,-2.892875 -0.873422,-3.833306 -0.384526,-1.015143 -1.067508,-1.544529 -1.992655,-1.544529 -0.978885,0 -1.458995,0.415867 -2.781451,2.409267 -1.234114,1.860241 -1.909653,3.155396 -2.682462,5.142858 -0.399087,1.02635 -0.883579,2.598332 -0.883579,2.866859 0,0.0796 -0.03822,0.144725 -0.08494,0.144725 -0.117935,0 -0.443141,-1.44276 -0.563948,-2.501931 -0.241722,-2.119286 -0.38342,-2.463147 -1.197613,-2.906287 -0.763311,-0.415446 -1.730146,-0.295155 -2.358521,0.293442 -0.342518,0.320834 -0.584193,0.866409 -1.117696,2.523168 -1.211715,3.762902 -1.812416,7.340172 -1.812416,10.793229 0,0.891426 -0.03365,1.620776 -0.07478,1.620776 -0.04113,0 -0.616916,-0.26779 -1.279523,-0.595089 z m 46.183809,-22.50042 c 0.568444,-0.376179 0.889162,-0.985257 0.88652,-1.683599 -0.0018,-0.484688 -0.06205,-0.682477 -0.425775,-1.398505 -1.050897,-2.068796 -2.643777,-3.766108 -4.935025,-5.258575 -1.967669,-1.281695 -2.7672,-1.556196 -3.602986,-1.237006 -1.433165,0.54733 -1.768068,2.451713 -0.603486,3.431646 0.162725,0.136924 0.532363,0.368337 0.821416,0.51425 0.841677,0.424877 2.137847,1.329955 2.853398,1.992446 0.810356,0.750267 1.413608,1.539902 1.87694,2.456853 0.581578,1.150961 1.080274,1.498987 2.091649,1.459706 0.533251,-0.02071 0.72865,-0.07293 1.037349,-0.277216 z M 40.458819,59.560573 c 0.152896,-0.07825 0.799228,-0.578502 1.436294,-1.111667 2.429994,-2.033678 4.49392,-3.481124 6.189762,-4.340923 0.610355,-0.309453 1.107462,-0.632671 1.292729,-0.84053 0.538854,-0.604565 0.635188,-1.455276 0.251895,-2.224445 -0.3816,-0.765772 -1.253119,-1.216083 -2.093493,-1.081702 -0.773831,0.123741 -3.492853,1.670659 -5.177572,2.945649 -0.820673,0.621082 -0.774352,0.627419 -0.700434,-0.09583 0.417529,-4.08539 1.884479,-8.389932 4.086029,-11.989838 0.781435,-1.277777 0.877216,-1.503001 0.874919,-2.0573 -0.0073,-1.772145 -2.094457,-2.691538 -3.364708,-1.482187 -0.822802,0.783353 -2.883065,4.727167 -3.820519,7.313342 -1.363795,3.76233 -1.927125,6.976614 -1.928905,11.006071 -0.0012,2.748354 0.03884,2.957946 0.684863,3.583797 0.645307,0.625159 1.50383,0.767252 2.26914,0.375565 z m 46.391039,-17.1118 c 0.464645,-0.07811 1.136119,-0.687366 1.33685,-1.212973 0.260766,-0.682805 0.145013,-1.272327 -0.507102,-2.582628 -0.776086,-1.559395 -1.59975,-2.665977 -3.112668,-4.18183 -1.445446,-1.448251 -2.819034,-2.550669 -4.95753,-3.978827 -2.328932,-1.555337 -6.459185,-3.832182 -7.207864,-3.973409 -0.578053,-0.10904 -1.204028,0.103913 -1.689279,0.574685 -0.680019,0.659725 -0.823879,1.436952 -0.424667,2.29432 0.265788,0.570818 0.551821,0.796958 1.78919,1.414548 2.231101,1.113579 5.185828,2.920542 6.974303,4.265134 0.906187,0.681281 2.817417,2.32091 2.765349,2.372372 -0.01618,0.016 -0.551771,-0.04728 -1.190193,-0.140615 -2.867899,-0.41927 -5.667387,-0.45252 -6.460968,-0.07674 -1.167351,0.552775 -1.499854,2.131449 -0.652255,3.096811 0.55051,0.626996 0.760589,0.679177 2.915922,0.724275 2.543583,0.05322 4.529101,0.317014 7.489344,0.995014 2.182126,0.499784 2.315366,0.526723 2.455599,0.496482 0.07645,-0.01649 0.290633,-0.05547 0.475969,-0.08662 z"
       id="path4190"
       inkscape:connector-curvature="0"
       transform="translate(442.4181,347.24105)" />
  </g>
</svg>
