<?xml version="1.0" encoding="UTF-8" standalone="no"?>
<!-- Created with Inkscape (http://www.inkscape.org/) -->

<svg
   width="34.555614mm"
   height="11.553907mm"
   viewBox="0 0 122.44115 40.939042"
   id="svg4220"
   version="1.1"
   inkscape:version="1.3.2 (1:1.3.2+202311252150+091e20ef0f)"
   sodipodi:docname="peppy_logo.svg"
   inkscape:export-filename="/home/nsheff/Dropbox/Science Media Repository/logo/pep.svg.png"
   inkscape:export-xdpi="797.57941"
   inkscape:export-ydpi="797.57941"
   xml:space="preserve"
   xmlns:inkscape="http://www.inkscape.org/namespaces/inkscape"
   xmlns:sodipodi="http://sodipodi.sourceforge.net/DTD/sodipodi-0.dtd"
   xmlns:xlink="http://www.w3.org/1999/xlink"
   xmlns="http://www.w3.org/2000/svg"
   xmlns:svg="http://www.w3.org/2000/svg"
   xmlns:rdf="http://www.w3.org/1999/02/22-rdf-syntax-ns#"
   xmlns:cc="http://creativecommons.org/ns#"
   xmlns:dc="http://purl.org/dc/elements/1.1/"><defs
     id="defs4222"><filter
       style="color-interpolation-filters:sRGB;"
       inkscape:label="Drop Shadow"
       id="filter4720"
       x="-0.089591048"
       y="-0.22882433"
       width="1.1528318"
       height="1.3903474"><feFlood
         flood-opacity="0.498039"
         flood-color="rgb(0,0,0)"
         result="flood"
         id="feFlood4722" /><feComposite
         in="flood"
         in2="SourceGraphic"
         operator="out"
         result="composite1"
         id="feComposite4724" /><feGaussianBlur
         in="composite1"
         stdDeviation="2"
         result="blur"
         id="feGaussianBlur4726" /><feOffset
         dx="-2"
         dy="-2"
         result="offset"
         id="feOffset4728" /><feComposite
         in="offset"
         in2="SourceGraphic"
         operator="atop"
         result="composite2"
         id="feComposite4730" /></filter><linearGradient
       id="linearGradient11301"
       inkscape:collect="always"><stop
         id="stop11303"
         offset="0"
         style="stop-color:#ffe052;stop-opacity:1" /><stop
         id="stop11305"
         offset="1"
         style="stop-color:#ffc331;stop-opacity:1" /></linearGradient><linearGradient
       gradientUnits="userSpaceOnUse"
       y2="168.1012"
       x2="147.77737"
       y1="111.92053"
       x1="89.136749"
       id="linearGradient11307"
       xlink:href="#linearGradient11301"
       inkscape:collect="always"
       gradientTransform="matrix(5.9886435,0,0,5.9886435,-157.07581,-744.41977)" /><linearGradient
       id="linearGradient9515"
       inkscape:collect="always"><stop
         id="stop9517"
         offset="0"
         style="stop-color:#387eb8;stop-opacity:1" /><stop
         id="stop9519"
         offset="1"
         style="stop-color:#366994;stop-opacity:1" /></linearGradient><linearGradient
       gradientUnits="userSpaceOnUse"
       y2="131.85291"
       x2="110.14919"
       y1="77.070274"
       x1="55.549179"
       id="linearGradient9521"
       xlink:href="#linearGradient9515"
       inkscape:collect="always"
       gradientTransform="matrix(5.9886435,0,0,5.9886435,-157.07581,-744.41977)" /></defs><sodipodi:namedview
     id="base"
     pagecolor="#ffffff"
     bordercolor="#666666"
     borderopacity="1.0"
     inkscape:pageopacity="0.0"
     inkscape:pageshadow="2"
     inkscape:zoom="5.6"
     inkscape:cx="65.446429"
     inkscape:cy="12.053571"
     inkscape:document-units="px"
     inkscape:current-layer="layer1"
     showgrid="false"
     fit-margin-top="1"
     fit-margin-left="1"
     fit-margin-right="1"
     fit-margin-bottom="1"
     inkscape:showpageshadow="2"
     inkscape:pagecheckerboard="0"
     inkscape:deskcolor="#d1d1d1"
     inkscape:window-width="2488"
     inkscape:window-height="1343"
     inkscape:window-x="1272"
     inkscape:window-y="27"
     inkscape:window-maximized="1" /><metadata
     id="metadata4225"><rdf:RDF><cc:Work
         rdf:about=""><dc:format>image/svg+xml</dc:format><dc:type
           rdf:resource="http://purl.org/dc/dcmitype/StillImage" /></cc:Work></rdf:RDF></metadata><g
     inkscape:label="Layer 1"
     inkscape:groupmode="layer"
     id="layer1"
     transform="translate(-335.6912,-556.1784)"><g
       id="g4180"
       style="fill:#000000;fill-rule:evenodd;stroke:none;stroke-width:1"
       transform="matrix(0.56420713,0,0,0.56420713,339.23445,559.72193)"><g
         id="g4182"
         transform="translate(-986,-742)"
         style="fill:#000000"><g
           style="fill:#000000"
           id="g4184"
           transform="translate(986,742)"><path
             style="fill:#000000"
             id="path4188"
             d="M 30,50 C 18.972,50 10,41.028 10,30 c 0,-0.33 0.009,-0.664 0.025,-1 0.185,-0.001 0.359,-0.036 0.538,-0.057 0.151,-0.017 0.307,-0.018 0.454,-0.048 0.177,-0.037 0.34,-0.104 0.51,-0.159 0.142,-0.046 0.29,-0.076 0.425,-0.134 0.16,-0.068 0.304,-0.163 0.455,-0.247 0.131,-0.073 0.27,-0.132 0.393,-0.215 0.14,-0.095 0.26,-0.214 0.39,-0.322 0.116,-0.097 0.241,-0.182 0.348,-0.289 0.12,-0.121 0.218,-0.262 0.325,-0.394 0.094,-0.116 0.2,-0.222 0.284,-0.346 0.1,-0.147 0.172,-0.312 0.255,-0.469 0.068,-0.127 0.149,-0.246 0.205,-0.379 0.08,-0.188 0.128,-0.391 0.184,-0.59 0.033,-0.117 0.083,-0.226 0.107,-0.346 C 14.965,24.68 15,24.344 15,24 15,23.702 14.964,23.411 14.911,23.124 14.898,23.047 14.884,22.97 14.867,22.893 14.808,22.64 14.734,22.393 14.637,22.154 14.596,22.053 14.547,21.958 14.5,21.86 14.429,21.712 14.351,21.568 14.265,21.428 14.191,21.305 14.116,21.185 14.032,21.07 13.914,20.908 13.786,20.753 13.649,20.606 13.555,20.505 13.457,20.411 13.355,20.319 13.252,20.224 13.143,20.137 13.031,20.052 12.945,19.985 12.869,19.908 12.778,19.847 16.374,13.748 22.883,10 30,10 41.028,10 50,18.972 50,30 50,41.028 41.028,50 30,50 M 52,30 C 52,17.869 42.131,8 30,8 22.072,8 14.841,12.234 10.918,19.093 10.62,19.037 10.315,19 10,19 7.243,19 5,21.243 5,24 5,26.073 6.269,27.854 8.07,28.611 8.041,29.076 8,29.544 8,30 8,42.131 17.869,52 30,52 42.131,52 52,42.131 52,30"
             inkscape:connector-curvature="0" /><path
             style="fill:#000000"
             id="path4190"
             d="m 43.2881,54.6436 c -4.071,2.198 -8.646,3.356 -13.288,3.356 -15.44,0 -28,-12.56 -28,-28 0,-15.439 12.56,-28 28,-28 5.296,0 10.454,1.492 14.922,4.314 l 0.26,0.247 c -0.115,0.462 -0.182,0.943 -0.182,1.439 0,3.309 2.691,6 6,6 0.263,0 0.521,-0.022 0.775,-0.055 0.069,-0.009 0.136,-0.02 0.204,-0.032 0.219,-0.036 0.434,-0.083 0.645,-0.142 0.029,-0.008 0.06,-0.011 0.089,-0.02 l 0.255,0.244 c 3.292,4.714 5.032,10.247 5.032,16.005 0,7.001 -2.574,13.645 -7.269,18.811 -0.235,-0.154 -0.484,-0.28 -0.74,-0.392 -0.053,-0.022 -0.107,-0.039 -0.161,-0.06 -0.225,-0.089 -0.456,-0.161 -0.693,-0.216 -0.077,-0.018 -0.152,-0.036 -0.23,-0.051 -0.297,-0.054 -0.599,-0.092 -0.907,-0.092 -2.757,0 -5,2.244 -5,5 0,0.303 0.034,0.603 0.091,0.901 0.03,0.166 0.082,0.323 0.128,0.483 0.026,0.086 0.039,0.175 0.069,0.26 m 16.712,-24.644 c 0,-6.187 -1.877,-12.131 -5.424,-17.193 1.468,-1.095 2.424,-2.839 2.424,-4.807 0,-3.308 -2.691,-6 -6,-6 -2.068,0 -3.894,1.052 -4.974,2.648 -4.797,-3.04 -10.337,-4.648 -16.026,-4.648 -16.542,0 -30,13.458 -30,30 0,16.542 13.458,30 30,30 5.005,0 9.929,-1.27 14.311,-3.654 0.915,1.009 2.223,1.654 3.689,1.654 2.757,0 5,-2.243 5,-5 0,-1.031 -0.315,-1.991 -0.852,-2.788 5.066,-5.542 7.852,-12.682 7.852,-20.212"
             inkscape:connector-curvature="0" /></g></g></g><path
       inkscape:connector-curvature="0"
       style="fill:#000000"
       d="m 412.43392,507.37369 c 1.64873,-1.64873 1.64875,-4.31724 0,-5.96599 l -6.71633,-6.71632 c -0.99716,-0.99717 -2.36772,-1.38806 -3.66033,-1.17905 -0.0432,0.006 -0.0857,0.0112 -0.12771,0.0182 -0.0117,0.002 -0.0248,0.007 -0.0365,0.009 -0.65273,0.13194 -1.27922,0.41721 -1.82216,0.85976 -0.11095,0.0899 -0.21765,0.18574 -0.32156,0.28965 -1.64758,1.64758 -1.64875,4.32183 -2e-5,5.97056 l 6.71633,6.71633 c 1.64987,1.64761 4.3207,1.64528 5.96828,-0.002 z m -0.49943,-0.49943 c -1.36967,1.36967 -3.59744,1.36969 -4.96713,0 l -3.35932,-3.35932 4.96711,-4.96711 3.35932,3.35932 c 1.36969,1.36969 1.36967,3.59746 2e-5,4.96711 z m -10.48385,-6.65698 c -0.10043,0.13076 -0.30148,0.13602 -0.42876,0.0227 -0.0163,-0.014 -1.81286,-1.66965 -0.8963,-3.94311 0.014,-0.0397 0.0382,-0.0746 0.0662,-0.10262 0.0829,-0.0829 0.21392,-0.11514 0.32837,-0.0684 0.15764,0.0642 0.23183,0.24037 0.16876,0.39683 -0.76014,1.88344 0.72485,3.24948 0.74124,3.26354 0.12489,0.11322 0.13375,0.30605 0.0205,0.43104 z"
       id="path4220" /><ellipse
       style="color:#000000;clip-rule:nonzero;display:inline;overflow:visible;visibility:visible;opacity:1;isolation:auto;mix-blend-mode:normal;color-interpolation:sRGB;color-interpolation-filters:linearRGB;solid-color:#000000;solid-opacity:1;fill:#ff0000;fill-opacity:1;fill-rule:nonzero;stroke:none;stroke-width:2.00000024;stroke-linecap:butt;stroke-linejoin:miter;stroke-miterlimit:4;stroke-dasharray:6.00000072, 2.00000024;stroke-dashoffset:0;stroke-opacity:1;marker:none;color-rendering:auto;image-rendering:auto;shape-rendering:auto;text-rendering:auto;enable-background:accumulate"
       id="path4248"
       cx="344.8399"
       cy="573.29431"
       rx="2.3967094"
       ry="2.3335748" /><circle
       r="2.3335748"
       cy="589.61456"
       cx="366.30563"
       id="circle4250"
       style="color:#000000;clip-rule:nonzero;display:inline;overflow:visible;visibility:visible;opacity:1;isolation:auto;mix-blend-mode:normal;color-interpolation:sRGB;color-interpolation-filters:linearRGB;solid-color:#000000;solid-opacity:1;fill:#ff0000;fill-opacity:1;fill-rule:nonzero;stroke:none;stroke-width:2.00000024;stroke-linecap:butt;stroke-linejoin:miter;stroke-miterlimit:4;stroke-dasharray:6.00000072, 2.00000024;stroke-dashoffset:0;stroke-opacity:1;marker:none;color-rendering:auto;image-rendering:auto;shape-rendering:auto;text-rendering:auto;enable-background:accumulate" /><circle
       style="color:#000000;clip-rule:nonzero;display:inline;overflow:visible;visibility:visible;opacity:1;isolation:auto;mix-blend-mode:normal;color-interpolation:sRGB;color-interpolation-filters:linearRGB;solid-color:#000000;solid-opacity:1;fill:#ff0000;fill-opacity:1;fill-rule:nonzero;stroke:none;stroke-width:2.00000024;stroke-linecap:butt;stroke-linejoin:miter;stroke-miterlimit:4;stroke-dasharray:6.00000072, 2.00000024;stroke-dashoffset:0;stroke-opacity:1;marker:none;color-rendering:auto;image-rendering:auto;shape-rendering:auto;text-rendering:auto;enable-background:accumulate"
       id="circle4252"
       cx="367.95255"
       cy="564.29224"
       r="2.9017856" /><g
       id="g1894"
       transform="matrix(0.1565463,0,0,0.1565463,340.8061,557.63744)"
       style="stroke-width:5.98864"><path
         style="color:#000000;display:inline;overflow:visible;visibility:visible;opacity:1;fill:url(#linearGradient9521);fill-opacity:1;fill-rule:nonzero;stroke:none;stroke-width:5.98864;stroke-linecap:butt;stroke-linejoin:miter;stroke-miterlimit:4;stroke-dasharray:none;stroke-dashoffset:0;stroke-opacity:1;marker:none;marker-start:none;marker-mid:none;marker-end:none"
         d="M 99.75,67.46875 C 71.718268,67.468752 73.46875,79.625 73.46875,79.625 L 73.5,92.21875 h 26.75 V 96 H 62.875 c 0,0 -17.9375,-2.034276 -17.9375,26.25 -2e-6,28.28427 15.65625,27.28125 15.65625,27.28125 h 9.34375 v -13.125 c 0,0 -0.503652,-15.65625 15.40625,-15.65625 15.9099,0 26.53125,0 26.53125,0 0,0 14.90625,0.24096 14.90625,-14.40625 0,-14.647206 0,-24.21875 0,-24.21875 0,-2e-6 2.26318,-14.65625 -27.03125,-14.65625 z M 85,75.9375 c 2.661429,-2e-6 4.8125,2.151071 4.8125,4.8125 2e-6,2.661429 -2.151071,4.8125 -4.8125,4.8125 -2.661429,2e-6 -4.8125,-2.151071 -4.8125,-4.8125 -2e-6,-2.661429 2.151071,-4.8125 4.8125,-4.8125 z"
         id="path8615" /><path
         id="path8620"
         d="m 100.5461,177.31485 c 28.03174,0 26.28125,-12.15625 26.28125,-12.15625 l -0.0312,-12.59375 h -26.75 v -3.78125 h 37.375 c 0,0 17.9375,2.03427 17.9375,-26.25001 10e-6,-28.284267 -15.65625,-27.281247 -15.65625,-27.281247 h -9.34375 v 13.124997 c 0,0 0.50366,15.65625 -15.40625,15.65625 -15.909902,0 -26.531252,0 -26.531252,0 0,0 -14.90625,-0.24096 -14.90625,14.40626 0,14.6472 0,24.21875 0,24.21875 0,0 -2.26318,14.65625 27.031252,14.65625 z m 14.75,-8.46875 c -2.66143,0 -4.8125,-2.15107 -4.8125,-4.8125 0,-2.66143 2.15107,-4.8125 4.8125,-4.8125 2.66143,0 4.8125,2.15107 4.8125,4.8125 1e-5,2.66143 -2.15107,4.8125 -4.8125,4.8125 z"
         style="color:#000000;display:inline;overflow:visible;visibility:visible;opacity:1;fill:url(#linearGradient11307);fill-opacity:1;fill-rule:nonzero;stroke:none;stroke-width:5.98864;stroke-linecap:butt;stroke-linejoin:miter;stroke-miterlimit:4;stroke-dasharray:none;stroke-dashoffset:0;stroke-opacity:1;marker:none;marker-start:none;marker-mid:none;marker-end:none" /></g><path
       d="m 381.16658,565.37279 -5.01324,0.0272 c -0.24522,0 -0.46319,0.21797 -0.46319,0.46318 l -0.0817,4.22311 v 9.69954 l 0.0817,4.22312 c 0,0.27246 0.21797,0.46318 0.46319,0.46318 h 1.63475 c 0.24521,0 0.46318,-0.19072 0.46318,-0.46318 l 0.0817,-4.22312 v -1.87996 l 2.83357,0.0272 c 8.39174,0 8.28275,-12.56036 0,-12.56036 z m 0,9.69954 -2.83357,0.0545 v -5.04049 l -0.0272,-1.87996 2.86082,0.0272 c 4.30485,0 4.46833,6.83872 0,6.83872 z m 20.92481,1.60751 c 0,-2.34315 -2.28865,-5.2857 -5.34019,-5.61265 -3.75994,-0.38145 -7.08394,1.85272 -7.57436,5.61265 -0.57217,4.30485 2.56111,7.79233 6.78423,7.79233 1.71649,0 3.46023,-0.54492 5.06773,-2.12518 0.21797,-0.19072 0.21797,-0.54492 0,-0.73564 l -1.08983,-1.06259 c -0.19072,-0.19072 -0.51767,-0.19072 -0.7084,0 -0.87186,0.79013 -2.15242,1.3078 -3.21501,1.3078 -1.87997,0 -3.62371,-0.79013 -4.14138,-2.88806 -0.0272,-0.16348 0.0817,-0.29971 0.24521,-0.29971 h 8.33725 c 0.76288,0 1.58026,-0.59941 1.60751,-1.36229 0.0272,-0.3542 0.0272,-0.62666 0.0272,-0.62666 z m -6.07583,-3.324 c 2.17967,0 3.16052,1.58026 3.56921,2.9698 0.0545,0.16348 -0.0545,0.3542 -0.24521,0.3542 h -7.0022 c -0.19072,0 -0.2997,-0.19072 -0.24521,-0.3542 0.38144,-1.52577 1.87997,-2.9698 3.92341,-2.9698 z m 8.93661,17.57361 c 0,0.2997 0.24521,0.54491 0.54492,0.54491 h 1.44403 c 0.2997,0 0.54492,-0.24521 0.54492,-0.54491 l 0.0545,-8.20102 c 0,-0.0545 0.0817,-0.10898 0.13623,-0.0272 0.73564,0.98086 2.47938,1.77099 3.89616,1.77099 3.70544,0 6.70249,-3.0243 6.70249,-6.72974 0,-3.70544 -2.99705,-6.72974 -6.70249,-6.72974 -3.59646,0 -6.53901,2.83358 -6.70249,6.40279 -0.16347,3.56921 0.0817,13.51397 0.0817,13.51397 z m 2.64285,-12.66935 c -0.32695,-2.6156 1.87997,-4.82252 4.49557,-4.49557 1.79823,0.21797 3.21502,1.662 3.46023,3.46023 0.32695,2.61561 -1.87996,4.82252 -4.49557,4.49557 -1.79823,-0.21797 -3.21502,-1.662 -3.46023,-3.46023 z m 13.54121,12.66935 c 0,0.2997 0.24521,0.54491 0.54492,0.54491 h 1.44403 c 0.2997,0 0.54492,-0.24521 0.54492,-0.54491 l 0.0545,-8.20102 c 0,-0.0545 0.0817,-0.10898 0.13623,-0.0272 0.73564,0.98086 2.47937,1.77099 3.89616,1.77099 3.70544,0 6.70249,-3.0243 6.70249,-6.72974 0,-3.70544 -2.99705,-6.72974 -6.70249,-6.72974 -3.59646,0 -6.53901,2.83358 -6.70249,6.40279 -0.16348,3.56921 0.0817,13.51397 0.0817,13.51397 z m 2.64285,-12.66935 c -0.32695,-2.6156 1.87997,-4.82252 4.49557,-4.49557 1.79823,0.21797 3.21502,1.662 3.46023,3.46023 0.32695,2.61561 -1.87996,4.82252 -4.49557,4.49557 -1.79823,-0.21797 -3.21502,-1.662 -3.46023,-3.46023 z m 15.44842,13.73194 h 1.52577 c 0.24522,0 0.46318,-0.13623 0.54492,-0.3542 l 7.76508,-19.42633 c 0.10899,-0.32695 -0.10898,-0.6539 -0.43593,-0.6539 h -1.662 c -0.21797,0 -0.38144,0.10899 -0.46318,0.29971 l -3.89617,8.9639 -3.9234,-8.9639 c -0.0817,-0.19072 -0.24522,-0.29971 -0.43594,-0.29971 h -1.68924 c -0.32696,0 -0.54492,0.32695 -0.43594,0.6539 l 5.01325,12.26066 -2.42489,6.75698 c -0.13623,0.38144 0.13623,0.76289 0.51767,0.76289 z"
       id="text1"
       style="font-size:27.2459px;line-height:1.25;font-family:cream;-inkscape-font-specification:cream;letter-spacing:0px;word-spacing:0px;stroke-width:0.937501"
       aria-label="Peppy" /><text
       xml:space="preserve"
       style="font-style:normal;font-variant:normal;font-weight:normal;font-stretch:normal;font-size:27.2459px;line-height:1.25;font-family:cream;-inkscape-font-specification:cream;text-decoration:none;text-decoration-line:none;text-decoration-color:#000000;letter-spacing:0px;word-spacing:0px;writing-mode:lr-tb;fill:#000000;stroke-width:0.937501"
       x="373.77237"
       y="618.41522"
       id="text2"><tspan
         id="tspan2"
         style="font-style:normal;font-variant:normal;font-weight:normal;font-stretch:normal;font-family:cream;-inkscape-font-specification:cream;stroke-width:0.937501"
         x="373.77237"
         y="618.41522"
         sodipodi:role="line">Peppy</tspan></text></g></svg>
