<?xml version="1.0" encoding="UTF-8" standalone="no"?>
<svg
   xmlns:osb="http://www.openswatchbook.org/uri/2009/osb"
   xmlns:dc="http://purl.org/dc/elements/1.1/"
   xmlns:cc="http://creativecommons.org/ns#"
   xmlns:rdf="http://www.w3.org/1999/02/22-rdf-syntax-ns#"
   xmlns:svg="http://www.w3.org/2000/svg"
   xmlns="http://www.w3.org/2000/svg"
   xmlns:sodipodi="http://sodipodi.sourceforge.net/DTD/sodipodi-0.dtd"
   xmlns:inkscape="http://www.inkscape.org/namespaces/inkscape"
   width="122mm"
   height="40mm"
   viewBox="0 0 432.28321 141.73231"
   id="svg4818"
   version="1.1"
   inkscape:version="0.92.5 (2060ec1f9f, 2020-04-08)"
   sodipodi:docname="pipestat_logo_lite.svg">
  <defs
     id="defs4820">
    <linearGradient
       id="linearGradient6584"
       osb:paint="solid">
      <stop
         style="stop-color:#171760;stop-opacity:1;"
         offset="0"
         id="stop6582" />
    </linearGradient>
    <rect
       x="570.98956"
       y="354.19086"
       width="283.55222"
       height="96.602348"
       id="rect954" />
  </defs>
  <sodipodi:namedview
     id="base"
     pagecolor="#ffffff"
     bordercolor="#666666"
     borderopacity="1.0"
     inkscape:pageopacity="0.0"
     inkscape:pageshadow="2"
     inkscape:zoom="0.59667545"
     inkscape:cx="-559.97954"
     inkscape:cy="44.102748"
     inkscape:document-units="px"
     inkscape:current-layer="layer1"
     showgrid="false"
     fit-margin-top="1"
     fit-margin-left="1"
     fit-margin-right="1"
     fit-margin-bottom="1"
     inkscape:document-rotation="0"
     inkscape:window-width="1802"
     inkscape:window-height="1042"
     inkscape:window-x="1563"
     inkscape:window-y="450"
     inkscape:window-maximized="0" />
  <metadata
     id="metadata4823">
    <rdf:RDF>
      <cc:Work
         rdf:about="">
        <dc:format>image/svg+xml</dc:format>
        <dc:type
           rdf:resource="http://purl.org/dc/dcmitype/StillImage" />
        <dc:title></dc:title>
      </cc:Work>
    </rdf:RDF>
  </metadata>
  <g
     inkscape:label="Layer 1"
     inkscape:groupmode="layer"
     id="layer1"
     transform="translate(-442.41812,-393.30403)">
    <path
       inkscape:connector-curvature="0"
       id="path47"
       style="font-style:normal;font-variant:normal;font-weight:normal;font-stretch:normal;font-size:125.86335754px;line-height:1.25;font-family:Uroob;-inkscape-font-specification:Uroob;font-variant-ligatures:normal;font-variant-position:normal;font-variant-caps:normal;font-variant-numeric:normal;font-variant-alternates:normal;font-feature-settings:normal;text-indent:0;text-align:start;text-decoration:none;text-decoration-line:none;text-decoration-style:solid;text-decoration-color:#000000;letter-spacing:0px;word-spacing:0px;text-transform:none;writing-mode:lr-tb;direction:ltr;text-orientation:mixed;dominant-baseline:auto;baseline-shift:baseline;text-anchor:start;white-space:normal;shape-padding:0;fill:#f9f9f9;fill-opacity:1;stroke:none;stroke-width:9.43975067;stroke-linecap:butt;stroke-linejoin:miter;stroke-miterlimit:4;stroke-dasharray:none;stroke-dashoffset:0;stroke-opacity:1"
       d="m 566.22163,438.26134 q 3.99468,-2.88847 8.91122,-2.88847 h 4.30197 q 7.80501,0 12.47572,4.48634 4.67071,4.48634 4.67071,12.41426 v 24.58269 q 0,12.90591 -8.6654,16.83914 -3.01138,1.35204 -7.25189,1.35204 h -6.76024 q -3.99469,0 -6.76024,-3.01138 v 30.05234 h -10.63201 l 0.0614,-86.71543 h 9.64871 z m 19.85052,37.79588 v -22.30879 q 0,-4.79362 -1.04477,-6.3915 -1.90515,-2.94992 -6.33004,-2.94992 h -5.28528 q -1.90515,0 -4.1176,1.35205 -2.15098,1.35204 -2.15098,3.19575 v 30.91272 q 0,1.84371 2.2739,3.99469 2.2739,2.08953 3.99468,2.08953 h 5.28528 q 6.08422,0 7.06752,-6.08422 0.24583,-1.78224 0.30729,-3.81031 z" />
    <path
       inkscape:connector-curvature="0"
       id="path49"
       style="font-style:normal;font-variant:normal;font-weight:normal;font-stretch:normal;font-size:125.86335754px;line-height:1.25;font-family:Uroob;-inkscape-font-specification:Uroob;font-variant-ligatures:normal;font-variant-position:normal;font-variant-caps:normal;font-variant-numeric:normal;font-variant-alternates:normal;font-feature-settings:normal;text-indent:0;text-align:start;text-decoration:none;text-decoration-line:none;text-decoration-style:solid;text-decoration-color:#000000;letter-spacing:0px;word-spacing:0px;text-transform:none;writing-mode:lr-tb;direction:ltr;text-orientation:mixed;dominant-baseline:auto;baseline-shift:baseline;text-anchor:start;white-space:normal;shape-padding:0;fill:#f9f9f9;fill-opacity:1;stroke:none;stroke-width:9.43975067;stroke-linecap:butt;stroke-linejoin:miter;stroke-miterlimit:4;stroke-dasharray:none;stroke-dashoffset:0;stroke-opacity:1"
       d="m 607.88928,417.3046 q 6.76024,0 6.76024,6.88315 0,6.94461 -6.76024,6.94461 -3.31866,0 -5.1009,-1.78225 -1.78225,-1.8437 -1.78225,-5.16236 0,-3.31866 1.78225,-5.10091 1.78224,-1.78224 5.1009,-1.78224 z m 5.16237,77.55837 h -10.57056 v -59.73593 h 10.57056 z" />
    <path
       inkscape:connector-curvature="0"
       id="path51"
       style="font-style:normal;font-variant:normal;font-weight:normal;font-stretch:normal;font-size:125.86335754px;line-height:1.25;font-family:Uroob;-inkscape-font-specification:Uroob;font-variant-ligatures:normal;font-variant-position:normal;font-variant-caps:normal;font-variant-numeric:normal;font-variant-alternates:normal;font-feature-settings:normal;text-indent:0;text-align:start;text-decoration:none;text-decoration-line:none;text-decoration-style:solid;text-decoration-color:#000000;letter-spacing:0px;word-spacing:0px;text-transform:none;writing-mode:lr-tb;direction:ltr;text-orientation:mixed;dominant-baseline:auto;baseline-shift:baseline;text-anchor:start;white-space:normal;shape-padding:0;fill:#f9f9f9;fill-opacity:1;stroke:none;stroke-width:9.43975067;stroke-linecap:butt;stroke-linejoin:miter;stroke-miterlimit:4;stroke-dasharray:none;stroke-dashoffset:0;stroke-opacity:1"
       d="m 628.78457,438.26134 q 3.99468,-2.88847 8.91122,-2.88847 h 4.30197 q 7.805,0 12.47571,4.48634 4.67072,4.48634 4.67072,12.41426 v 24.58269 q 0,12.90591 -8.6654,16.83914 -3.01138,1.35204 -7.25189,1.35204 h -6.76024 q -3.99469,0 -6.76024,-3.01138 v 30.05234 h -10.63201 l 0.0615,-86.71543 h 9.64871 z m 19.85052,37.79588 v -22.30879 q 0,-4.79362 -1.04477,-6.3915 -1.90516,-2.94992 -6.33004,-2.94992 H 635.975 q -1.90516,0 -4.1176,1.35205 -2.15098,1.35204 -2.15098,3.19575 v 30.91272 q 0,1.84371 2.2739,3.99469 2.27389,2.08953 3.99468,2.08953 h 5.28528 q 6.08422,0 7.06752,-6.08422 0.24583,-1.78224 0.30729,-3.81031 z" />
    <path
       inkscape:connector-curvature="0"
       id="path53"
       style="font-style:normal;font-variant:normal;font-weight:normal;font-stretch:normal;font-size:125.86335754px;line-height:1.25;font-family:Uroob;-inkscape-font-specification:Uroob;font-variant-ligatures:normal;font-variant-position:normal;font-variant-caps:normal;font-variant-numeric:normal;font-variant-alternates:normal;font-feature-settings:normal;text-indent:0;text-align:start;text-decoration:none;text-decoration-line:none;text-decoration-style:solid;text-decoration-color:#000000;letter-spacing:0px;word-spacing:0px;text-transform:none;writing-mode:lr-tb;direction:ltr;text-orientation:mixed;dominant-baseline:auto;baseline-shift:baseline;text-anchor:start;white-space:normal;shape-padding:0;fill:#f9f9f9;fill-opacity:1;stroke:none;stroke-width:9.43975067;stroke-linecap:butt;stroke-linejoin:miter;stroke-miterlimit:4;stroke-dasharray:none;stroke-dashoffset:0;stroke-opacity:1"
       d="m 704.86799,481.40395 q -0.18437,9.27997 -7.19044,12.66009 -2.33535,1.10622 -5.34673,1.10622 h -14.56524 q -5.46965,0 -9.03414,-3.93323 -3.62595,-3.93323 -3.62595,-9.46434 v -33.55536 q 0,-5.46965 3.31866,-9.40288 3.31867,-3.93323 8.72686,-3.93323 h 15.61 q 5.46965,0 8.72686,4.17905 3.2572,4.17906 3.2572,9.77162 v 7.98938 q 0,5.40819 -3.01137,9.27996 -3.01138,3.81032 -8.35812,3.81032 h -17.94536 v 11.12366 q 0,4.91654 4.97799,4.91654 h 9.34143 q 2.08952,0 3.31866,-1.16768 1.29059,-1.22913 1.22913,-3.38012 z m -24.45978,-36.99694 q -4.97799,0 -4.97799,5.16236 v 11.24658 h 13.45902 q 2.33536,0 3.93323,-1.29059 1.65933,-1.35205 1.65933,-3.87177 v -6.33004 q 0,-2.58119 -1.65933,-3.74886 -1.59787,-1.16768 -3.93323,-1.16768 z" />
    <path
       inkscape:connector-curvature="0"
       id="path55"
       style="font-style:normal;font-variant:normal;font-weight:normal;font-stretch:normal;font-size:125.86335754px;line-height:1.25;font-family:Uroob;-inkscape-font-specification:Uroob;font-variant-ligatures:normal;font-variant-position:normal;font-variant-caps:normal;font-variant-numeric:normal;font-variant-alternates:normal;font-feature-settings:normal;text-indent:0;text-align:start;text-decoration:none;text-decoration-line:none;text-decoration-style:solid;text-decoration-color:#000000;letter-spacing:0px;word-spacing:0px;text-transform:none;writing-mode:lr-tb;direction:ltr;text-orientation:mixed;dominant-baseline:auto;baseline-shift:baseline;text-anchor:start;white-space:normal;shape-padding:0;fill:#f9f9f9;fill-opacity:1;stroke:none;stroke-width:9.43975067;stroke-linecap:butt;stroke-linejoin:miter;stroke-miterlimit:4;stroke-dasharray:none;stroke-dashoffset:0;stroke-opacity:1"
       d="m 737.68588,448.27878 q 0.12291,-3.44157 -4.24052,-3.44157 h -7.68209 q -5.28527,0.0614 -4.79362,7.19043 0.12291,1.8437 0.12291,3.31866 0,4.60926 4.67071,4.60926 h 10.75493 q 5.5311,0 8.91122,3.93323 3.44158,3.93323 3.44158,9.40288 v 8.2352 q 0,5.65401 -3.6874,9.71016 -3.68741,3.99468 -9.27997,3.99468 h -13.52048 q -6.02275,0 -9.40287,-3.87177 -3.44158,-3.87177 -3.44158,-9.89453 h 10.57055 q -0.12291,2.15098 1.04477,3.07284 1.22913,0.86039 3.19575,0.86039 h 8.91122 q 4.67071,0 4.67071,-4.60925 v -6.14568 q 0,-4.79362 -4.67071,-4.79362 h -10.14036 q -5.59256,0 -9.27996,-3.50303 -3.6874,-3.50304 -3.6874,-9.03414 v -8.97268 q 0,-5.53111 3.44157,-9.46434 3.44158,-3.93323 8.91123,-3.93323 h 13.21319 q 5.65402,0 9.0956,3.74886 3.44157,3.74886 3.44157,9.58725 z" />
    <path
       inkscape:connector-curvature="0"
       id="path57"
       style="font-style:normal;font-variant:normal;font-weight:normal;font-stretch:normal;font-size:125.86335754px;line-height:1.25;font-family:Uroob;-inkscape-font-specification:Uroob;font-variant-ligatures:normal;font-variant-position:normal;font-variant-caps:normal;font-variant-numeric:normal;font-variant-alternates:normal;font-feature-settings:normal;text-indent:0;text-align:start;text-decoration:none;text-decoration-line:none;text-decoration-style:solid;text-decoration-color:#000000;letter-spacing:0px;word-spacing:0px;text-transform:none;writing-mode:lr-tb;direction:ltr;text-orientation:mixed;dominant-baseline:auto;baseline-shift:baseline;text-anchor:start;white-space:normal;shape-padding:0;fill:#f9f9f9;fill-opacity:1;stroke:none;stroke-width:9.43975067;stroke-linecap:butt;stroke-linejoin:miter;stroke-miterlimit:4;stroke-dasharray:none;stroke-dashoffset:0;stroke-opacity:1"
       d="m 768.4734,482.44872 q 0,4.54779 4.91654,4.54779 4.97799,0 5.5311,-5.16236 h 2.2739 v 11.12367 q -4.05614,3.6874 -9.46433,3.6874 -10.14036,0 -13.33611,-7.62063 -1.04476,-2.45827 -1.04476,-5.83839 v -36.81258 h -4.48635 v -9.27996 h 4.48635 v -11.73823 h 11.12366 v 11.73823 h 8.48103 v 9.27996 h -8.48103 z" />
    <path
       inkscape:connector-curvature="0"
       id="path59"
       style="font-style:normal;font-variant:normal;font-weight:normal;font-stretch:normal;font-size:125.86335754px;line-height:1.25;font-family:Uroob;-inkscape-font-specification:Uroob;font-variant-ligatures:normal;font-variant-position:normal;font-variant-caps:normal;font-variant-numeric:normal;font-variant-alternates:normal;font-feature-settings:normal;text-indent:0;text-align:start;text-decoration:none;text-decoration-line:none;text-decoration-style:solid;text-decoration-color:#000000;letter-spacing:0px;word-spacing:0px;text-transform:none;writing-mode:lr-tb;direction:ltr;text-orientation:mixed;dominant-baseline:auto;baseline-shift:baseline;text-anchor:start;white-space:normal;shape-padding:0;fill:#f9f9f9;fill-opacity:1;stroke:none;stroke-width:9.43975067;stroke-linecap:butt;stroke-linejoin:miter;stroke-miterlimit:4;stroke-dasharray:none;stroke-dashoffset:0;stroke-opacity:1"
       d="m 817.11583,449.56937 q 0,-5.16236 -4.978,-5.16236 h -11.18512 q -1.8437,0 -2.88847,1.16768 -0.9833,1.10622 -1.04476,2.88846 h -10.57056 q 0.12292,-5.59256 3.62595,-9.46433 3.50303,-3.87178 8.91122,-3.87178 h 16.40895 q 5.28528,0 8.66539,3.81032 3.38012,3.81032 3.38012,9.27997 v 46.95293 h -10.26327 v -2.39681 q -3.31866,2.58118 -6.51441,2.58118 h -10.0789 q -5.59256,0 -10.14036,-3.62595 -4.5478,-3.62594 -4.5478,-8.91122 v -11.67678 q 0,-5.40819 4.5478,-9.03414 4.5478,-3.62594 10.14036,-3.62594 h 11.9226 q 2.45827,0 4.60926,1.35204 z m -0.18437,31.22002 v -7.62064 q 0,-2.33535 -1.35205,-3.93323 -1.29059,-1.65933 -3.81032,-1.65933 h -10.44764 q -2.58118,0 -3.74886,1.65933 -1.16768,1.59788 -1.16768,3.93323 v 7.62064 q 0,2.33535 1.16768,3.99468 1.16768,1.59788 3.74886,1.59788 h 10.44764 q 2.51973,0 3.81032,-1.59788 1.35205,-1.65933 1.35205,-3.99468 z" />
    <path
       inkscape:connector-curvature="0"
       id="path61"
       style="font-style:normal;font-variant:normal;font-weight:normal;font-stretch:normal;font-size:125.86335754px;line-height:1.25;font-family:Uroob;-inkscape-font-specification:Uroob;font-variant-ligatures:normal;font-variant-position:normal;font-variant-caps:normal;font-variant-numeric:normal;font-variant-alternates:normal;font-feature-settings:normal;text-indent:0;text-align:start;text-decoration:none;text-decoration-line:none;text-decoration-style:solid;text-decoration-color:#000000;letter-spacing:0px;word-spacing:0px;text-transform:none;writing-mode:lr-tb;direction:ltr;text-orientation:mixed;dominant-baseline:auto;baseline-shift:baseline;text-anchor:start;white-space:normal;shape-padding:0;fill:#f9f9f9;fill-opacity:1;stroke:none;stroke-width:9.43975067;stroke-linecap:butt;stroke-linejoin:miter;stroke-miterlimit:4;stroke-dasharray:none;stroke-dashoffset:0;stroke-opacity:1"
       d="m 848.2744,482.44872 q 0,4.54779 4.91653,4.54779 4.978,0 5.53111,-5.16236 h 2.2739 v 11.12367 q -4.05615,3.6874 -9.46434,3.6874 -10.14036,0 -13.33611,-7.62063 -1.04476,-2.45827 -1.04476,-5.83839 v -36.81258 h -4.48634 v -9.27996 h 4.48634 v -11.73823 h 11.12367 v 11.73823 h 8.48102 v 9.27996 h -8.48102 z" />
    <path
       id="path30"
       d="m 505.30094,410.54076 a 43.129451,43.129451 0 1 0 43.12947,43.12946 43.129451,43.129451 0 0 0 -43.12947,-43.12946 z m -4.17382,77.64692 a 34.781815,34.781815 0 0 1 -30.34365,-30.34364 h 30.34365 z m 2.17038,-38.69129 h -32.51403 a 34.781815,34.781815 0 0 1 52.86835,-25.39072 z m 6.17726,38.69129 v -26.71241 l 22.26037,14.80313 a 34.781815,34.781815 0 0 1 -22.26037,11.90928 z m 26.86547,-18.83782 -24.93159,-16.62572 18.71261,-23.38728 a 34.684425,34.684425 0 0 1 6.21898,40.013 z"
       inkscape:connector-curvature="0"
       style="stroke-width:1.39127266;fill:#f9f9f9" />
    <text
       id="text43"
       y="643.29523"
       x="541.11371"
       style="font-style:normal;font-variant:normal;font-weight:normal;font-stretch:normal;font-size:125.86335754px;line-height:1.25;font-family:arial;-inkscape-font-specification:'arial, Normal';font-variant-ligatures:normal;font-variant-position:normal;font-variant-caps:normal;font-variant-numeric:normal;font-variant-alternates:normal;font-feature-settings:normal;text-indent:0;text-align:start;text-decoration:none;text-decoration-line:none;text-decoration-style:solid;text-decoration-color:#000000;letter-spacing:0px;word-spacing:0px;text-transform:none;writing-mode:lr-tb;direction:ltr;text-orientation:mixed;dominant-baseline:auto;baseline-shift:baseline;text-anchor:start;white-space:normal;shape-padding:0;opacity:1;vector-effect:none;fill:#000000;fill-opacity:1;stroke:none;stroke-width:9.43975067;stroke-linecap:butt;stroke-linejoin:miter;stroke-miterlimit:4;stroke-dasharray:none;stroke-dashoffset:0;stroke-opacity:1"
       xml:space="preserve"><tspan
         style="font-style:normal;font-variant:normal;font-weight:normal;font-stretch:normal;font-family:Uroob;-inkscape-font-specification:Uroob;stroke-width:9.43975067"
         y="643.29523"
         x="541.11371"
         id="tspan41"
         sodipodi:role="line">pipestat</tspan></text>
    <path
       style="stroke-width:1.39127266"
       inkscape:connector-curvature="0"
       d="m 495.92594,558.66576 a 43.129451,43.129451 0 1 0 43.12947,43.12946 43.129451,43.129451 0 0 0 -43.12947,-43.12946 z m -4.17382,77.64692 a 34.781815,34.781815 0 0 1 -30.34365,-30.34364 h 30.34365 z m 2.17038,-38.69129 h -32.51403 a 34.781815,34.781815 0 0 1 52.86835,-25.39072 z m 6.17726,38.69129 v -26.71241 l 22.26037,14.80313 a 34.781815,34.781815 0 0 1 -22.26037,11.90928 z m 26.86547,-18.83782 -24.93159,-16.62572 18.71261,-23.38728 a 34.684425,34.684425 0 0 1 6.21898,40.013 z"
       id="path45" />
  </g>
</svg>
